<svg width="92" height="25" viewBox="0 0 92 25" fill="none" xmlns="http://www.w3.org/2000/svg">
<path d="M12.9001 16.875C11.1501 16.225 9.35006 16.125 7.70006 16.575C6.55006 16.875 5.45006 17.475 4.45006 18.225L3.75005 18.825L3.55005 19.025L4.00005 19.425C4.05005 19.425 4.05005 19.475 4.10005 19.525C4.20005 19.625 4.30006 19.675 4.45006 19.775L4.75005 19.975L5.05005 19.725C5.10005 19.675 5.20005 19.575 5.30005 19.525C6.20005 18.775 7.20005 18.275 8.25005 18.025C9.60005 17.675 11.05 17.725 12.5 18.275C13.7 18.725 16.1501 19.275 19.1001 18.025L19.2001 17.975L19.3501 17.825C19.3501 17.775 19.4001 17.775 19.4501 17.725C19.7001 17.425 19.9501 17.125 20.1501 16.775L21.1501 15.225L19.55 16.125C17.2 17.425 15.0501 17.675 12.9001 16.875Z" fill="white"/>
<path d="M6.05 11.4749C7.4 11.1249 8.85 11.1749 10.3 11.7249C11.9 12.3249 16 13.1749 20.6 9.02495L21.35 8.27495L21.4 8.22495L21.6 8.02495L21.5 7.77495C21.45 7.57495 21.35 7.32495 21.25 7.07495L21 6.37494L20.5 6.87494C20.45 6.97494 20.35 7.02494 20.25 7.12494C18.05 9.37494 14.65 11.6749 10.75 10.2749C9 9.62495 7.2 9.52495 5.55 9.97495C3.95 10.4249 2.55 11.2749 1.25 12.4749V12.4249L0.5 13.2249C0.5 13.2749 0.450009 13.275 0.400009 13.325L0.25 13.4749L0.300003 13.6749C0.350003 13.9249 0.45 14.1749 0.5 14.4249L0.800003 15.2249L1.3 14.575C1.35 14.475 1.45 14.425 1.5 14.325C2.55 13.375 4 12.0249 6.05 11.4749Z" fill="white"/>
<path d="M1.20001 10.575C2.35001 9.37495 3.65 8.62495 5.05 8.22495C6.4 7.87495 7.85 7.92494 9.3 8.47495C13.8 10.1249 17.7 7.42495 19.4 5.97495L20.05 5.32495L20.3 5.12494L20.1 4.82495C19.95 4.67495 19.85 4.47495 19.7 4.27495L19.4 3.87494L19.05 4.22495C19 4.27495 18.9 4.37494 18.85 4.42494C16.75 6.42494 13.5 8.47495 9.8 7.07495C8.05 6.42495 6.25001 6.32495 4.60001 6.77495C3.55001 7.07495 2.55 7.57494 1.55 8.22495L0.5 9.07495C0.4 9.17495 0.35 9.22495 0.25 9.32495L0.150009 9.42494V9.57495C0.100009 9.92495 0.100003 10.275 0.0500031 10.575L0 11.825L0.850006 10.9249C0.950006 10.8249 1.05001 10.675 1.20001 10.575Z" fill="white"/>
<path d="M14.3499 20.2749L14.2499 20.5749L14.3499 20.2749C14.1999 20.2249 14.1 20.1749 13.95 20.1249C12.2 19.4749 10.3999 19.3749 8.74994 19.8249C8.39994 19.9249 8.04995 20.0249 7.69995 20.1749L6.49994 20.7249L6.19995 20.8749L7.19995 21.2249C7.49995 21.3249 7.79995 21.4249 8.09995 21.5249L8.24994 21.5749L8.39995 21.5249C8.54995 21.4749 8.69994 21.3749 8.84995 21.3749C8.94994 21.3749 9.04995 21.3249 9.14995 21.2749C10.3499 20.9749 11.6499 20.9749 13.0499 21.4249C13.1999 21.4749 13.3 21.5249 13.45 21.5749L13.7 21.6749L13.8499 21.6249C14.1999 21.5249 14.5999 21.4249 14.8999 21.2749L16.2999 20.7749L14.8499 20.4249C14.6999 20.3749 14.4999 20.3249 14.3499 20.2749Z" fill="white"/>
<path d="M21.9999 9.92523L21.2499 10.6752C21.1499 10.7752 21.0499 10.8752 20.9499 10.9752C18.8999 12.9252 15.5999 15.0252 11.8999 13.6252C10.1499 12.9752 8.34991 12.8752 6.69991 13.3252C5.14991 13.7752 3.74989 14.5752 2.49989 15.7752L1.8499 16.4752L1.6499 16.7252L1.8499 17.0252C1.9999 17.2252 2.09991 17.3752 2.19991 17.5752L2.49989 18.0252L2.8499 17.5752C2.8999 17.5252 2.9999 17.4252 3.0499 17.3752C4.2499 16.0752 5.5499 15.2752 7.0499 14.8752C8.3999 14.5252 9.8499 14.5752 11.2999 15.1252C12.5499 15.5752 13.8499 15.7252 15.1499 15.5752C17.4499 15.3252 19.7499 14.0252 21.4499 12.5752C21.5499 12.4752 21.6499 12.4252 21.7499 12.3252L21.8999 12.1752V12.0252C21.8999 11.7252 21.9499 11.3752 21.9499 11.0752L21.9999 9.92523Z" fill="white"/>
<path d="M3.00009 5.32533L2.8501 5.02533L3.00009 5.32533C3.30009 5.17533 3.6501 5.07533 3.9501 4.97533C5.3001 4.62533 6.7501 4.67533 8.2001 5.22533C9.1501 5.57533 10.1001 5.72533 11.1501 5.72533C13.2501 5.72533 15.3501 4.97533 17.3001 3.52533L18.0501 2.92532L18.3001 2.72533L17.8501 2.37532C17.7001 2.22532 17.5001 2.07533 17.3001 1.97533L17.0001 1.77533L16.7501 1.97533C16.6501 2.02533 16.6001 2.12532 16.5001 2.17532C13.8501 4.17532 11.2001 4.72533 8.7001 3.77533C6.9001 3.12533 5.10009 2.97533 3.30009 3.52533C3.15009 3.57533 3.00009 3.62532 2.80009 3.67532L2.7001 3.72533L2.55009 3.87532C2.55009 3.92532 2.5001 3.92533 2.4501 3.97533C2.2501 4.27533 2.00009 4.52533 1.80009 4.82533L0.850098 6.27533L2.4001 5.47533C2.6501 5.47533 2.85009 5.37533 3.00009 5.32533Z" fill="white"/>
<path d="M7.10001 1.92513L7.25 1.97513C7.9 2.22513 8.90001 2.47513 10.15 2.47513C11.45 2.47513 12.7 2.17513 13.95 1.67513L15.5 0.925125L14.45 0.575134C14.15 0.475134 13.85 0.375134 13.5 0.325134H13.35L13.2 0.375122C13.05 0.425122 12.9 0.525134 12.75 0.575134C11.25 1.12513 9.75 1.22513 8.3 0.825134C8.15 0.775134 8.00001 0.725125 7.85001 0.675125L7.70001 0.625122L7.55 0.675125C7.25 0.775125 6.95001 0.875131 6.65001 1.02513L5.5 1.52513L6.70001 1.87512C6.80001 1.82512 6.95001 1.87513 7.10001 1.92513Z" fill="white"/>
<path d="M40.448 19.2419C35.916 19.2419 32.902 15.9859 32.902 11.0579C32.902 6.15194 36.004 2.82994 40.558 2.82994C44.144 2.82994 46.894 4.96394 47.488 8.21994H45.178C44.584 6.15194 42.802 4.89794 40.492 4.89794C37.28 4.89794 35.168 7.31794 35.168 11.0359C35.168 14.7539 37.28 17.1739 40.492 17.1739C42.824 17.1739 44.672 15.9199 45.266 13.9619H47.554C46.872 17.1299 44.034 19.2419 40.448 19.2419ZM49.1416 13.6099C49.1416 10.2879 51.5176 7.95594 54.7516 7.95594C57.9636 7.95594 60.3396 10.2879 60.3396 13.6099C60.3396 16.9319 57.9636 19.2639 54.7516 19.2639C51.5176 19.2639 49.1416 16.9319 49.1416 13.6099ZM51.2316 13.6099C51.2316 15.8539 52.6616 17.4159 54.7516 17.4159C56.8196 17.4159 58.2716 15.8539 58.2716 13.6099C58.2716 11.3659 56.8196 9.80394 54.7516 9.80394C52.6616 9.80394 51.2316 11.3659 51.2316 13.6099ZM61.9468 13.3459C61.9468 10.3099 63.9048 7.93394 67.0288 7.93394C68.7668 7.93394 70.1088 8.72594 70.7908 10.0679L70.9448 8.24194H72.7928V18.5599C72.7928 21.9479 70.7028 24.1039 67.4028 24.1039C64.4768 24.1039 62.4748 22.4539 62.0788 19.7259H64.1468C64.4108 21.3099 65.5988 22.2339 67.4028 22.2339C69.4268 22.2339 70.7468 20.9139 70.7468 18.8679V16.7119C70.0428 17.9659 68.6348 18.7139 66.9408 18.7139C63.8828 18.7139 61.9468 16.3599 61.9468 13.3459ZM64.0148 13.3019C64.0148 15.3259 65.2688 16.9099 67.2928 16.9099C69.3828 16.9099 70.6588 15.4139 70.6588 13.3019C70.6588 11.2339 69.4268 9.73794 67.3148 9.73794C65.2468 9.73794 64.0148 11.3219 64.0148 13.3019ZM76.7893 5.68994C76.0413 5.68994 75.4253 5.07394 75.4253 4.32594C75.4253 3.55594 76.0413 2.96194 76.7893 2.96194C77.5373 2.96194 78.1533 3.55594 78.1533 4.32594C78.1533 5.07394 77.5373 5.68994 76.7893 5.68994ZM75.7773 18.9999V8.24194H77.8453V18.9999H75.7773ZM85.4896 19.2639C82.3216 19.2639 80.1436 16.9759 80.1436 13.6319C80.1436 10.2659 82.2776 7.93394 85.4016 7.93394C88.4596 7.93394 90.4616 10.0459 90.4616 13.2359V14.0059L82.1456 14.0279C82.2996 16.2939 83.4876 17.5479 85.5336 17.5479C87.1396 17.5479 88.1956 16.8879 88.5476 15.6559H90.4836C89.9556 17.9659 88.1516 19.2639 85.4896 19.2639ZM85.4016 9.67194C83.5976 9.67194 82.4536 10.7499 82.1896 12.6419H88.3936C88.3936 10.8599 87.2276 9.67194 85.4016 9.67194Z" fill="white"/>
</svg>
